<svg version="1.1" xmlns="http://www.w3.org/2000/svg" viewBox="0 0 1024 1536" preserveAspectRatio="xMidYMid meet" xmlns:xlink="http://www.w3.org/1999/xlink" xmlns:svgjs="http://svgjs.dev/svgjs">
<path d="M0 0 C337.92 0 675.84 0 1024 0 C1024 506.88 1024 1013.76 1024 1536 C686.08 1536 348.16 1536 0 1536 C0 1029.12 0 522.24 0 0 Z " fill="#fcfcfc" transform="translate(0,0)" id="SvgjsPath1000"></path>
<path d="M0 0 C47.52 0 95.04 0 144 0 C144 45.54 144 91.08 144 138 C96.48 138 48.96 138 0 138 C0 92.46 0 46.92 0 0 Z " fill="#ee912f" transform="translate(377,448)" id="SvgjsPath1001"></path>
<path d="M0 0 C0.972 -0.009 1.944 -0.018 2.946 -0.027 C6.128 -0.048 9.308 -0.034 12.49 -0.017 C14.719 -0.02 16.947 -0.025 19.176 -0.032 C23.833 -0.039 28.49 -0.028 33.148 -0.005 C39.102 0.024 45.055 0.007 51.009 -0.023 C55.606 -0.041 60.204 -0.035 64.801 -0.022 C66.996 -0.019 69.191 -0.023 71.385 -0.035 C74.458 -0.047 77.529 -0.028 80.602 0 C81.498 -0.01 82.394 -0.02 83.318 -0.031 C90.585 0.09 96.236 2.397 101.595 7.373 C107.835 13.903 109.187 21.336 109.14 30.041 C109.147 30.945 109.154 31.848 109.161 32.779 C109.179 35.744 109.175 38.709 109.17 41.674 C109.174 43.749 109.18 45.823 109.186 47.898 C109.194 52.238 109.192 56.577 109.182 60.917 C109.171 66.463 109.191 72.008 109.22 77.554 C109.238 81.836 109.238 86.118 109.232 90.399 C109.232 92.443 109.238 94.488 109.251 96.532 C109.266 99.396 109.255 102.259 109.238 105.123 C109.252 106.374 109.252 106.374 109.267 107.651 C109.164 115.93 106.112 123.067 100.479 129.156 C94.388 134.366 87.389 135.235 79.662 135.165 C78.216 135.175 78.216 135.175 76.741 135.186 C73.581 135.203 70.423 135.192 67.263 135.178 C65.053 135.181 62.843 135.185 60.633 135.19 C56.013 135.196 51.393 135.187 46.772 135.168 C40.862 135.146 34.952 135.159 29.042 135.183 C24.482 135.197 19.923 135.193 15.363 135.182 C13.184 135.18 11.005 135.183 8.826 135.192 C5.778 135.202 2.73 135.187 -0.319 135.165 C-1.211 135.173 -2.103 135.181 -3.022 135.189 C-10.281 135.092 -15.391 133.053 -20.951 128.397 C-27.485 120.628 -29.409 114.918 -29.441 104.799 C-29.451 103.459 -29.451 103.459 -29.461 102.092 C-29.481 99.138 -29.492 96.183 -29.502 93.229 C-29.506 92.218 -29.51 91.207 -29.515 90.165 C-29.535 84.812 -29.55 79.459 -29.559 74.106 C-29.57 68.589 -29.605 63.073 -29.644 57.556 C-29.67 53.303 -29.679 49.051 -29.682 44.798 C-29.687 42.765 -29.699 40.732 -29.717 38.7 C-29.742 35.847 -29.741 32.995 -29.734 30.142 C-29.747 29.311 -29.76 28.48 -29.773 27.624 C-29.707 20.171 -27.18 14.578 -23.139 8.397 C-16.395 1.947 -9.138 -0.103 0 0 Z " fill="#ee912f" transform="translate(574.263916015625,609.35302734375)" id="SvgjsPath1002"></path>
<path d="M0 0 C0.759 0.593 1.519 1.186 2.301 1.797 C3.331 2.563 3.331 2.563 4.383 3.344 C16.667 13.133 25.081 29.399 27.301 44.797 C29.001 66.751 23.656 85.356 9.242 102.203 C-1.933 114.178 -17.981 122.354 -34.461 123.133 C-52.441 123.463 -68.093 119.598 -82.012 107.422 C-83.592 105.898 -85.155 104.357 -86.699 102.797 C-87.397 102.133 -88.094 101.469 -88.812 100.785 C-100.882 88.481 -106.293 71.494 -106.199 54.609 C-106.191 52.82 -106.191 52.82 -106.182 50.994 C-105.841 34.136 -99.626 19.315 -87.98 6.953 C-63.499 -16.187 -27.608 -20.607 0 0 Z " fill="#ee912f" transform="translate(653.69921875,461.203125)" id="SvgjsPath1003"></path>
<path d="M0 0 C0.66 0 1.32 0 2 0 C11.035 15.812 11.035 15.812 20.07 31.623 C20.401 32.202 20.732 32.781 21.072 33.377 C22.06 35.105 23.048 36.834 24.035 38.562 C25.355 40.871 26.674 43.18 27.994 45.489 C31.343 51.348 34.69 57.209 38.035 63.07 C55.88 94.363 55.88 94.363 74.141 125.414 C74.905 126.696 74.905 126.696 75.684 128.004 C76.133 128.755 76.582 129.506 77.045 130.28 C78 132 78 132 78 133 C27.51 133 -22.98 133 -75 133 C-73.532 129.331 -72.082 126.189 -70.164 122.781 C-69.319 121.275 -69.319 121.275 -68.457 119.739 C-67.852 118.67 -67.248 117.601 -66.625 116.5 C-65.999 115.387 -65.372 114.274 -64.727 113.128 C-59.347 103.583 -53.919 94.065 -48.468 84.561 C-45.974 80.21 -43.487 75.855 -41 71.5 C-39.995 69.741 -38.99 67.982 -37.984 66.223 C-37.489 65.355 -36.993 64.488 -36.482 63.594 C-34.312 59.795 -34.312 59.795 -32.141 55.996 C-31.666 55.165 -31.191 54.334 -30.702 53.478 C-29.732 51.781 -28.762 50.084 -27.792 48.387 C-25.19 43.834 -22.589 39.281 -19.99 34.726 C-18.572 32.242 -17.154 29.758 -15.736 27.274 C-15.05 26.073 -14.365 24.872 -13.68 23.67 C-12.082 20.87 -10.482 18.072 -8.876 15.277 C-7.585 13.021 -6.304 10.761 -5.034 8.493 C-4.41 7.393 -3.787 6.293 -3.145 5.16 C-2.309 3.671 -2.309 3.671 -1.456 2.153 C-0.735 1.087 -0.735 1.087 0 0 Z " fill="#ee912f" transform="translate(448,611)" id="SvgjsPath1004"></path>
<path d="M0 0 C0 49.83 0 99.66 0 151 C2.97 151 5.94 151 9 151 C9 152.65 9 154.3 9 156 C-1.56 156 -12.12 156 -23 156 C-23.33 154.02 -23.66 152.04 -24 150 C-24.722 150.763 -25.444 151.526 -26.188 152.312 C-30.733 156.656 -33.964 158.439 -40.312 158.5 C-48.692 158.273 -52.983 155.289 -58.688 149.438 C-72.102 133.059 -71.394 108.644 -69.684 88.703 C-68.233 76.94 -64.921 63.448 -55.941 55.082 C-48.963 49.691 -42.718 49.213 -34 50 C-30.346 51.287 -27.746 53.254 -25 56 C-24.67 39.17 -24.34 22.34 -24 5 C-27.3 5 -30.6 5 -34 5 C-34 3.68 -34 2.36 -34 1 C-29.479 0.857 -24.959 0.715 -20.438 0.573 C-18.9 0.524 -17.361 0.476 -15.823 0.427 C-13.614 0.357 -11.404 0.288 -9.195 0.219 C-8.161 0.186 -8.161 0.186 -7.105 0.152 C-2.228 0 -2.228 0 0 0 Z " fill="#0c0d0d" transform="translate(380,805)" id="SvgjsPath1005"></path>
<path d="M0 0 C4.151 3.7 6.346 8.268 7.233 13.789 C7.362 16.09 7.371 18.358 7.329 20.662 C7.33 21.522 7.33 22.382 7.331 23.267 C7.328 26.076 7.297 28.883 7.266 31.691 C7.258 33.652 7.252 35.612 7.248 37.572 C7.233 42.706 7.194 47.84 7.15 52.974 C7.109 58.223 7.09 63.472 7.07 68.721 C7.028 79.002 6.959 89.282 6.875 99.562 C10.505 99.562 14.135 99.562 17.875 99.562 C17.875 101.212 17.875 102.862 17.875 104.562 C4.345 104.562 -9.185 104.562 -23.125 104.562 C-23.125 102.913 -23.125 101.263 -23.125 99.562 C-20.485 99.562 -17.845 99.562 -15.125 99.562 C-15.455 69.533 -15.785 39.503 -16.125 8.562 C-21.639 7.46 -22.584 7.664 -27.125 10.562 C-33.777 17.405 -35.218 25.569 -35.33 34.74 C-35.345 35.794 -35.345 35.794 -35.36 36.87 C-35.392 39.18 -35.417 41.49 -35.441 43.801 C-35.462 45.408 -35.483 47.015 -35.504 48.622 C-35.559 52.842 -35.609 57.062 -35.657 61.282 C-35.708 65.593 -35.763 69.903 -35.818 74.213 C-35.926 82.663 -36.027 91.113 -36.125 99.562 C-33.815 99.562 -31.505 99.562 -29.125 99.562 C-29.125 101.212 -29.125 102.862 -29.125 104.562 C-41.335 104.562 -53.545 104.562 -66.125 104.562 C-66.125 102.913 -66.125 101.263 -66.125 99.562 C-63.155 99.562 -60.185 99.562 -57.125 99.562 C-57.125 68.212 -57.125 36.862 -57.125 4.562 C-60.095 4.562 -63.065 4.562 -66.125 4.562 C-66.125 3.242 -66.125 1.923 -66.125 0.562 C-56.225 0.562 -46.325 0.562 -36.125 0.562 C-35.795 4.523 -35.465 8.482 -35.125 12.562 C-34.3 11.346 -33.475 10.129 -32.625 8.875 C-25.387 -0.822 -11.441 -5.496 0 0 Z " fill="#0c0d0d" transform="translate(876.125,856.4375)" id="SvgjsPath1006"></path>
<path d="M0 0 C15.18 0 30.36 0 46 0 C46 1.65 46 3.3 46 5 C42.37 5 38.74 5 35 5 C35 52.19 35 99.38 35 148 C49.403 146.257 49.403 146.257 59 138 C64.971 128.89 66.175 117.533 68 107 C69.65 106.67 71.3 106.34 73 106 C73 121.51 73 137.02 73 153 C48.58 153 24.16 153 -1 153 C-1 151.35 -1 149.7 -1 148 C2.63 148 6.26 148 10 148 C10 100.81 10 53.62 10 5 C6.37 5 2.74 5 -1 5 C-0.67 3.35 -0.34 1.7 0 0 Z " fill="#0c0d0d" transform="translate(509,808)" id="SvgjsPath1007"></path>
<path d="M0 0 C6.448 3.792 10.59 9.043 13.438 15.938 C14.473 20.04 14.586 23.952 14.627 28.175 C14.635 28.884 14.644 29.594 14.652 30.325 C14.669 31.858 14.685 33.391 14.698 34.924 C14.719 37.349 14.746 39.774 14.775 42.198 C14.844 48.216 14.904 54.234 14.964 60.252 C15.014 65.345 15.069 70.439 15.129 75.533 C15.156 77.925 15.177 80.317 15.197 82.709 C15.214 84.169 15.231 85.629 15.248 87.089 C15.261 88.366 15.273 89.643 15.286 90.959 C15.234 93.865 15.234 93.865 16.438 95.938 C17.758 95.938 19.077 95.938 20.438 95.938 C21.428 92.967 22.418 89.997 23.438 86.938 C24.757 86.938 26.077 86.938 27.438 86.938 C27.934 92.892 26.852 96.987 23.438 101.938 C19.676 105.699 16.579 106.216 11.438 106.375 C4.933 106.134 1.346 104.722 -3.438 100.25 C-4.489 99.105 -4.489 99.105 -5.562 97.938 C-6.377 98.678 -6.377 98.678 -7.207 99.434 C-7.922 100.074 -8.638 100.715 -9.375 101.375 C-10.083 102.013 -10.79 102.651 -11.52 103.309 C-16.751 107.48 -24.244 106.553 -30.562 105.938 C-36.319 103.899 -39.658 100.282 -42.562 94.938 C-45.147 87.184 -44.479 78.827 -41 71.5 C-36.343 62.629 -28.287 56.989 -20.375 51.188 C-19.486 50.529 -18.597 49.87 -17.682 49.191 C-16.037 47.973 -14.39 46.757 -12.741 45.544 C-11.663 44.749 -11.663 44.749 -10.562 43.938 C-9.82 43.496 -9.077 43.054 -8.311 42.599 C-6.305 41.018 -6.305 41.018 -6.061 38.245 C-6.064 36.649 -6.064 36.649 -6.066 35.02 C-6.066 33.847 -6.065 32.675 -6.064 31.467 C-6.094 29.627 -6.094 29.627 -6.125 27.75 C-6.118 26.543 -6.111 25.336 -6.104 24.092 C-6.12 13.106 -6.12 13.106 -11.562 3.938 C-17.214 3.318 -17.214 3.318 -22.125 5.688 C-23.761 7.783 -23.761 7.783 -23.5 10 C-22.469 12.131 -21.297 13.347 -19.562 14.938 C-18.136 17.791 -18.252 19.772 -18.562 22.938 C-20.713 26.275 -21.767 27.672 -25.562 28.938 C-31.261 29.475 -34.114 28.539 -38.562 24.938 C-40.305 21.453 -40.007 17.748 -39.562 13.938 C-37.201 7.124 -31.788 2.938 -25.625 -0.375 C-17.611 -3.678 -7.88 -3.595 0 0 Z " fill="#0c0d0d" transform="translate(711.5625,857.0625)" id="SvgjsPath1008"></path>
<path d="M0 0 C8.611 6.553 12.189 16.731 13.715 27.146 C14.541 35.53 14.093 44.086 13.945 52.48 C0.415 52.48 -13.115 52.48 -27.055 52.48 C-27.913 76.379 -27.913 76.379 -19.055 97.48 C-13.576 99.307 -8.107 99.388 -2.805 97.043 C4.205 90.511 6.853 83.53 9.184 74.324 C9.945 71.48 9.945 71.48 10.945 70.48 C12.611 70.44 14.279 70.438 15.945 70.48 C13.601 82.079 9.883 94.184 -0.055 101.48 C-6.826 105.643 -12.829 106.465 -20.562 105.008 C-26.772 103.422 -31.331 100.776 -36.055 96.48 C-36.6 95.989 -37.145 95.498 -37.707 94.992 C-45.237 87.271 -47.678 75.85 -49.055 65.48 C-49.166 64.769 -49.276 64.057 -49.391 63.324 C-51.83 45.659 -50.652 22.595 -40.012 7.602 C-29.929 -4.321 -14.059 -8.507 0 0 Z " fill="#0c0d0d" transform="translate(642.0546875,858.51953125)" id="SvgjsPath1009"></path>
<path d="M0 0 C15.51 0 31.02 0 47 0 C47 1.65 47 3.3 47 5 C43.37 5 39.74 5 36 5 C36 52.19 36 99.38 36 148 C39.63 148 43.26 148 47 148 C47 149.65 47 151.3 47 153 C31.49 153 15.98 153 0 153 C0 151.35 0 149.7 0 148 C3.3 148 6.6 148 10 148 C10 100.81 10 53.62 10 5 C6.7 5 3.4 5 0 5 C0 3.35 0 1.7 0 0 Z " fill="#0c0d0d" transform="translate(141,808)" id="SvgjsPath1010"></path>
<path d="M0 0 C7.92 0 15.84 0 24 0 C24 1.65 24 3.3 24 5 C22.808 5.329 21.615 5.657 20.387 5.996 C15.097 7.995 12.841 11.461 9.812 16.062 C8.688 17.694 7.563 19.326 6.438 20.957 C5.87 21.793 5.303 22.629 4.719 23.491 C1.995 27.467 -0.851 31.353 -3.688 35.25 C-4.757 36.738 -5.826 38.226 -6.895 39.715 C-8.92 42.527 -10.979 45.307 -13.074 48.066 C-13.548 48.701 -14.022 49.335 -14.511 49.989 C-15.393 51.168 -16.287 52.339 -17.194 53.499 C-19.468 56.529 -19.468 56.529 -19.839 60.18 C-18.697 64.019 -16.991 67.459 -15.203 71.035 C-14.625 72.21 -14.625 72.21 -14.036 73.408 C-13.208 75.089 -12.379 76.768 -11.547 78.447 C-9.361 82.857 -7.194 87.276 -5.027 91.695 C-4.595 92.577 -4.162 93.459 -3.717 94.367 C0.573 103.131 4.678 111.973 8.75 120.84 C11.964 127.823 15.277 134.74 18.819 141.564 C21 145.801 21 145.801 21 148 C24.3 148 27.6 148 31 148 C31 149.65 31 151.3 31 153 C15.49 153 -0.02 153 -16 153 C-16 151.35 -16 149.7 -16 148 C-13.03 148 -10.06 148 -7 148 C-8.805 143.913 -10.619 139.831 -12.438 135.75 C-12.719 135.118 -13 134.487 -13.29 133.836 C-16.949 125.638 -20.691 117.484 -24.543 109.375 C-24.924 108.573 -25.305 107.771 -25.697 106.944 C-27.573 103 -29.456 99.06 -31.349 95.124 C-33.278 91.103 -35.149 87.058 -37 83 C-37.439 82.089 -37.878 81.177 -38.331 80.238 C-39.63 77.185 -40.43 75.22 -39.301 72.019 C-38.023 69.863 -36.592 67.999 -35 66.062 C-33.862 64.572 -32.724 63.081 -31.586 61.59 C-30.99 60.832 -30.394 60.074 -29.78 59.292 C-26.951 55.649 -24.301 51.882 -21.625 48.125 C-18.204 43.381 -14.755 38.659 -11.277 33.957 C-10.657 33.118 -10.037 32.28 -9.398 31.416 C-8.216 29.819 -7.031 28.224 -5.844 26.631 C-4.213 24.432 -2.605 22.218 -1 20 C-0.413 19.214 0.173 18.428 0.778 17.618 C1.337 16.838 1.896 16.058 2.473 15.254 C2.982 14.557 3.491 13.861 4.016 13.143 C5.281 10.388 4.84 8.853 4 6 C1.525 5.505 1.525 5.505 -1 5 C-0.67 3.35 -0.34 1.7 0 0 Z " fill="#0c0d0d" transform="translate(218,808)" id="SvgjsPath1011"></path>
<path d="M0 0 C2.317 0.856 4.364 0.905 6.809 0.668 C7.139 0.008 7.469 -0.652 7.809 -1.332 C9.459 -1.332 11.109 -1.332 12.809 -1.332 C12.809 8.898 12.809 19.128 12.809 29.668 C10.829 29.668 8.849 29.668 6.809 29.668 C6.638 29.134 6.468 28.601 6.293 28.051 C2.261 13.759 2.261 13.759 -7.504 3.293 C-13.228 1.962 -18.886 2.015 -24.191 4.668 C-26.713 8.564 -26.966 13.157 -26.191 17.668 C-22.06 28.392 -10.353 36.65 -1.695 43.633 C7.306 50.949 12.647 59.377 15.809 70.668 C16.913 81.623 15.415 89.37 8.621 97.98 C2.921 104.005 -2.719 105.875 -10.941 106.23 C-17.423 106.069 -22.567 104.402 -28.449 101.762 C-31.319 100.421 -31.319 100.421 -35.191 100.668 C-35.521 101.658 -35.851 102.648 -36.191 103.668 C-38.171 103.668 -40.151 103.668 -42.191 103.668 C-42.191 92.118 -42.191 80.568 -42.191 68.668 C-40.541 68.668 -38.891 68.668 -37.191 68.668 C-36.949 69.658 -36.707 70.648 -36.457 71.668 C-32.814 86.804 -32.814 86.804 -22.191 97.668 C-16.298 99.983 -10.983 100.634 -4.941 98.543 C-1.54 96.224 -0.534 94.546 0.809 90.668 C1.59 84.638 0.099 80.594 -3.191 75.668 C-8.183 69.267 -13.884 64.185 -20.211 59.152 C-23.665 56.273 -26.916 53.25 -30.129 50.105 C-30.673 49.588 -31.216 49.07 -31.776 48.536 C-38.389 41.958 -41.293 34.755 -41.504 25.48 C-41.401 16.286 -38.387 10.034 -32.082 3.398 C-23.295 -4.645 -10.696 -4.307 0 0 Z " fill="#0c0d0d" transform="translate(440.19140625,857.33203125)" id="SvgjsPath1012"></path>
<path d="M0 0 C4.364 3.832 6.375 6.719 6.812 12.625 C6.542 16.551 6.009 18.213 3.562 21.25 C0.651 23.595 -1.217 24.219 -4.938 24.75 C-8.438 24.25 -8.438 24.25 -11.312 22.125 C-13.66 18.949 -14.354 17.176 -14.438 13.25 C-13.317 9.889 -12.492 9.286 -9.438 7.25 C-9.438 6.26 -9.438 5.27 -9.438 4.25 C-11.68 3.66 -11.68 3.66 -14.438 4.25 C-20.911 8.919 -22.838 16.834 -24.438 24.25 C-25.124 30.116 -25.044 36.028 -25.047 41.926 C-25.062 43.589 -25.079 45.252 -25.097 46.915 C-25.14 51.246 -25.161 55.578 -25.176 59.91 C-25.195 64.348 -25.237 68.786 -25.277 73.225 C-25.352 81.9 -25.403 90.575 -25.438 99.25 C-21.477 99.25 -17.518 99.25 -13.438 99.25 C-13.438 100.9 -13.438 102.55 -13.438 104.25 C-27.628 104.25 -41.817 104.25 -56.438 104.25 C-56.438 102.6 -56.438 100.95 -56.438 99.25 C-53.138 99.25 -49.837 99.25 -46.438 99.25 C-46.438 67.9 -46.438 36.55 -46.438 4.25 C-49.737 4.25 -53.038 4.25 -56.438 4.25 C-56.438 2.93 -56.438 1.61 -56.438 0.25 C-46.207 0.25 -35.977 0.25 -25.438 0.25 C-25.107 2.89 -24.778 5.53 -24.438 8.25 C-23.736 7.157 -23.035 6.064 -22.312 4.938 C-16.89 -2.525 -8.14 -4.144 0 0 Z " fill="#0c0d0d" transform="translate(801.4375,856.75)" id="SvgjsPath1013"></path>
<path d="M0 0 C10.23 0 20.46 0 31 0 C31 32.67 31 65.34 31 99 C34.63 99 38.26 99 42 99 C42 100.65 42 102.3 42 104 C27.48 104 12.96 104 -2 104 C-2 102.35 -2 100.7 -2 99 C1.63 99 5.26 99 9 99 C9 67.65 9 36.3 9 4 C6.03 4 3.06 4 0 4 C0 2.68 0 1.36 0 0 Z " fill="#0c0d0d" transform="translate(256,857)" id="SvgjsPath1014"></path>
<path d="M0 0 C3.942 0.805 6.531 2.576 9.062 5.625 C11.712 10.146 12.443 13.445 12.467 18.665 C12.473 19.342 12.48 20.02 12.487 20.718 C12.506 22.942 12.502 25.166 12.496 27.391 C12.501 28.95 12.506 30.509 12.512 32.069 C12.521 35.333 12.519 38.598 12.509 41.863 C12.497 46.023 12.517 50.183 12.546 54.343 C12.565 57.564 12.565 60.784 12.559 64.005 C12.559 65.537 12.565 67.07 12.577 68.602 C12.637 77.099 12.615 85.142 8.062 92.625 C4.975 95.444 3.08 96.438 -1 97.188 C-5.078 96.407 -6.432 94.897 -8.938 91.625 C-10.601 86.825 -11.193 82.612 -11.212 77.547 C-11.217 76.878 -11.222 76.209 -11.228 75.519 C-11.241 73.328 -11.241 71.137 -11.238 68.945 C-11.242 67.407 -11.247 65.87 -11.251 64.332 C-11.259 61.116 -11.258 57.9 -11.253 54.684 C-11.247 50.583 -11.264 46.483 -11.288 42.382 C-11.302 39.208 -11.303 36.033 -11.3 32.859 C-11.301 31.348 -11.306 29.837 -11.316 28.326 C-11.422 10.24 -11.422 10.24 -5.625 2.562 C-2.938 0.625 -2.938 0.625 0 0 Z " fill="#fcfcfc" transform="translate(344.9375,860.375)" id="SvgjsPath1015"></path>
<path d="M0 0 C2.97 0 5.94 0 9 0 C11.385 6.868 13.769 13.737 16.153 20.605 C16.964 22.941 17.775 25.277 18.586 27.612 C19.753 30.973 20.919 34.334 22.086 37.695 C22.447 38.736 22.809 39.777 23.181 40.849 C24.815 45.558 26.441 50.267 28 55 C25.36 55 22.72 55 20 55 C19.161 52.731 18.328 50.46 17.5 48.188 C17.262 47.545 17.023 46.902 16.777 46.24 C15.729 43.351 15 41.099 15 38 C7.74 38 0.48 38 -7 38 C-7.66 40.97 -8.32 43.94 -9 47 C-9.886 49.734 -10.931 52.329 -12 55 C-14.31 55 -16.62 55 -19 55 C-12.949 36.558 -6.605 18.25 0 0 Z " fill="#0c0d0d" transform="translate(493,1002)" id="SvgjsPath1016"></path>
<path d="M0 0 C3.814 2.68 4.822 5.59 6 10 C6.254 12.898 6.234 15.773 6.195 18.68 C6.192 19.492 6.19 20.305 6.187 21.143 C6.176 23.72 6.151 26.297 6.125 28.875 C6.115 30.63 6.106 32.385 6.098 34.141 C6.077 38.427 6.038 42.713 6 47 C-0.93 47 -7.86 47 -15 47 C-15.069 42.483 -15.129 37.968 -15.165 33.45 C-15.18 31.918 -15.2 30.386 -15.226 28.854 C-15.571 8.166 -15.571 8.166 -9.75 1.375 C-6.186 -0.407 -3.935 -0.572 0 0 Z " fill="#fcfcfc" transform="translate(630,859)" id="SvgjsPath1017"></path>
<path d="M0 0 C0.074 5.426 0.129 10.852 0.165 16.278 C0.18 18.122 0.2 19.966 0.226 21.809 C0.263 24.468 0.28 27.126 0.293 29.785 C0.308 30.602 0.324 31.419 0.34 32.261 C0.342 38.383 -0.889 42.728 -4.25 47.938 C-7.172 49.712 -9.685 49.355 -13 49 C-15.104 47.457 -15.841 46.319 -17 44 C-17.272 39.589 -17.232 35.169 -17.25 30.75 C-17.271 29.522 -17.291 28.293 -17.312 27.027 C-17.318 25.838 -17.323 24.648 -17.328 23.422 C-17.337 22.335 -17.347 21.248 -17.356 20.128 C-16.796 15.214 -14.818 11.327 -11.152 8.008 C-10.63 7.531 -10.107 7.054 -9.568 6.562 C-9.03 6.088 -8.492 5.614 -7.938 5.125 C-7.395 4.627 -6.853 4.13 -6.295 3.617 C-2.275 0 -2.275 0 0 0 Z " fill="#fcfcfc" transform="translate(706,905)" id="SvgjsPath1018"></path>
<path d="M0 0 C3.225 2.664 5.084 4.579 6.875 8.375 C7.31 13.302 6.625 16.447 3.5 20.312 C-1.055 23.892 -3.281 24.969 -9.125 24.375 C-13.052 22.261 -15.758 20.144 -18.125 16.375 C-18.924 12.34 -19.053 8.179 -17.141 4.461 C-12.397 -1.483 -6.992 -3.636 0 0 Z " fill="#0c0d0d" transform="translate(282.125,806.625)" id="SvgjsPath1019"></path>
<path d="M0 0 C1.98 0 3.96 0 6 0 C6 18.15 6 36.3 6 55 C4.02 55 2.04 55 0 55 C0 36.85 0 18.7 0 0 Z " fill="#0c0d0d" transform="translate(539,1002)" id="SvgjsPath1020"></path>
<path d="M0 0 C1.879 2.819 2.729 4.911 3.727 8.105 C4.036 9.088 4.345 10.071 4.664 11.084 C4.981 12.108 5.298 13.132 5.625 14.188 C5.95 15.223 6.275 16.259 6.609 17.326 C7.411 19.883 8.206 22.441 9 25 C3.39 25 -2.22 25 -8 25 C-6.876 19.176 -5.307 13.62 -3.438 8 C-3.216 7.329 -2.994 6.658 -2.765 5.967 C-1.129 1.129 -1.129 1.129 0 0 Z " fill="#fcfcfc" transform="translate(497,1009)" id="SvgjsPath1021"></path>
</svg>